# xmcd
#
# Track frame offsets:
#	150
#	16799
#	28948
#	49197
#	74546
#	90445
#	105894
#	123293
#	145792
#
# Disc length: 2193 seconds
#
# Revision: 0
# Processed by: cddbd v1.5.2PL0 Copyright (c) Steve Scherf et al.
# Submitted via: audiograbber 1.83.01
#
DISCID=6c088f09
DTITLE=Dave Stewart - Sore Throat -Tensta Mix
DYEAR=1900
DGENRE=Blues
TTITLE0=Ride On
TTITLE1=Ain't No Sunshine
TTITLE2=I Shall Be Released
TTITLE3=Babylon
TTITLE4=Down Under
TTITLE5=Hey Joe
TTITLE6=Only Naturel
TTITLE7=Drops Of Jupiter
TTITLE8=Love Is All Around
EXTD=
EXTT0=
EXTT1=
EXTT2=
EXTT3=
EXTT4=
EXTT5=
EXTT6=
EXTT7=
EXTT8=
PLAYORDER=
